<svg width="192" height="192" xmlns="http://www.w3.org/2000/svg" preserveAspectRatio="xMidYMid meet" version="1.0">
 <metadata>Created by potrace 1.16, written by Peter Selinger 2001-2019</metadata>

 <g>
  <title>Layer 1</title>
  <g id="svg_1" fill="#000000" transform="translate(0 192) scale(0.1 -0.1)">
   <path fill="#003f7f" id="svg_2" d="m735,1903c-137,-35 -310,-120 -388,-192c-136,-124 -190,-193 -253,-321c-77,-160 -94,-237 -94,-430c0,-193 17,-270 94,-430c63,-128 117,-197 253,-321c81,-74 254,-158 395,-193c92,-22 344,-22 436,0c141,35 314,119 395,193c136,124 190,193 253,321c77,160 94,237 94,430c0,193 -17,270 -94,430c-63,128 -117,197 -253,321c-81,74 -254,158 -395,193c-88,21 -357,21 -443,-1zm4,-500c6,-49 18,-128 26,-178c14,-92 53,-351 81,-530c8,-55 19,-127 24,-161c18,-109 21,-104 -65,-104c-41,0 -75,3 -75,8c0,7 -16,113 -26,170l-5,33l-72,-3l-72,-3l-14,-102l-15,-103l-79,0l-79,0l6,27c6,26 33,203 56,363c10,69 40,268 66,435c24,157 34,219 34,228c0,4 44,7 99,7l98,0l12,-87zm438,12c6,-38 25,-164 43,-280c17,-116 33,-217 34,-225c1,-8 6,8 10,35c5,28 21,131 36,230c15,99 31,203 35,230c11,90 4,85 116,85l99,0l0,-530l0,-530l-75,0l-75,0l-1,343c-2,387 1,389 -58,-48c-17,-126 -34,-245 -37,-262c-5,-31 -7,-33 -47,-33l-43,0l-33,243c-18,133 -41,294 -51,357l-18,115l-1,-358l-1,-358l-72,3l-73,3l-3,515c-1,283 0,521 3,528c3,9 30,12 102,10l98,-3l12,-70z"/>
   <path fill="#003f7f" id="svg_3" d="m620,1172c0,-23 -6,-86 -14,-140c-8,-53 -17,-125 -21,-159l-6,-63l51,0l51,0l-5,33c-3,17 -15,106 -26,196c-21,167 -30,208 -30,133z"/>
  </g>
 </g>
</svg>